<?xml version="1.0" encoding="UTF-8" standalone="no"?>
<svg viewBox="-0.072 -6.399 6.48 6.48"
 xmlns="http://www.w3.org/2000/svg" xmlns:xlink="http://www.w3.org/1999/xlink"  version="1.2" baseProfile="tiny">
<title>Qt SVG Document</title>
<desc>Generated with Qt</desc>
<defs>
</defs>
<g fill="none" stroke="black" stroke-width="1" fill-rule="evenodd" stroke-linecap="square" stroke-linejoin="bevel" >

<g fill="param(fill)" fill-opacity="param(fill-opacity)" stroke="param(outline)" stroke-opacity="param(outline-opacity) 1" stroke-width="param(outline-width) 0" transform="matrix(1,0,0,1,0,0)"
font-family="MS Shell Dlg 2" font-size="8.25" font-weight="400" font-style="normal" 
>
<path vector-effect="none" fill-rule="nonzero" d="M3.168,-6.399 C4.068,-6.399 4.833,-6.084 5.463,-5.454 C6.093,-4.824 6.408,-4.059 6.408,-3.159 C6.408,-2.259 6.093,-1.494 5.463,-0.864 C4.833,-0.234 4.068,0.081 3.168,0.081 C2.262,0.081 1.4955,-0.2325 0.8685,-0.8595 C0.2415,-1.4865 -0.072,-2.253 -0.072,-3.159 C-0.072,-4.065 0.2415,-4.8315 0.8685,-5.4585 C1.4955,-6.0855 2.262,-6.399 3.168,-6.399 M3.168,-0.099 C4.014,-0.099 4.7355,-0.3975 5.3325,-0.9945 C5.9295,-1.5915 6.228,-2.313 6.228,-3.159 C6.228,-4.005 5.9295,-4.7265 5.3325,-5.3235 C4.7355,-5.9205 4.014,-6.219 3.168,-6.219 C2.316,-6.219 1.593,-5.922 0.999,-5.328 C0.405,-4.734 0.108,-4.011 0.108,-3.159 C0.108,-2.307 0.405,-1.584 0.999,-0.99 C1.593,-0.396 2.316,-0.099 3.168,-0.099 M1.971,-3.159 C1.971,-2.829 2.0865,-2.5485 2.3175,-2.3175 C2.5485,-2.0865 2.829,-1.971 3.159,-1.971 C3.489,-1.971 3.768,-2.0865 3.996,-2.3175 C4.224,-2.5485 4.338,-2.829 4.338,-3.159 C4.338,-3.483 4.2225,-3.7605 3.9915,-3.9915 C3.7605,-4.2225 3.483,-4.338 3.159,-4.338 C2.829,-4.338 2.5485,-4.224 2.3175,-3.996 C2.0865,-3.768 1.971,-3.489 1.971,-3.159 "/>
</g>
</g>
</svg>
