<?xml version="1.0" encoding="UTF-8" standalone="no"?>
<svg viewBox="0 -6.309 6.309 6.3"
 xmlns="http://www.w3.org/2000/svg" xmlns:xlink="http://www.w3.org/1999/xlink"  version="1.2" baseProfile="tiny">
<title>Qt SVG Document</title>
<desc>Generated with Qt</desc>
<defs>
</defs>
<g fill="none" stroke="black" stroke-width="1" fill-rule="evenodd" stroke-linecap="square" stroke-linejoin="bevel" >

<g fill="param(fill)" fill-opacity="param(fill-opacity)" stroke="param(outline)" stroke-opacity="param(outline-opacity) 1" stroke-width="param(outline-width) 0" transform="matrix(1,0,0,1,0,0)"
font-family="MS Shell Dlg 2" font-size="8.25" font-weight="400" font-style="normal" 
>
<path vector-effect="none" fill-rule="nonzero" d="M6.309,-3.1545 C6.309,-2.27972 6.003,-1.53677 5.391,-0.925664 C4.779,-0.314555 4.032,-0.009 3.15,-0.009 C2.274,-0.009 1.53,-0.314555 0.918,-0.925664 C0.306,-1.53677 0,-2.27972 0,-3.1545 C0,-4.03528 0.306,-4.78123 0.918,-5.39234 C1.53,-6.00345 2.274,-6.309 3.15,-6.309 C4.032,-6.309 4.779,-6.00345 5.391,-5.39234 C6.003,-4.78123 6.309,-4.03528 6.309,-3.1545 M6.066,-3.1545 C6.066,-3.96328 5.7825,-4.65073 5.2155,-5.21684 C4.6485,-5.78295 3.96,-6.066 3.15,-6.066 C2.346,-6.066 1.6605,-5.78145 1.0935,-5.21234 C0.5265,-4.64323 0.243,-3.95728 0.243,-3.1545 C0.243,-2.35172 0.5265,-1.66727 1.0935,-1.10116 C1.6605,-0.535055 2.346,-0.252 3.15,-0.252 C3.954,-0.252 4.641,-0.535055 5.211,-1.10116 C5.781,-1.66727 6.066,-2.35172 6.066,-3.1545 M4.68,-3.15 C4.68,-2.724 4.5315,-2.364 4.2345,-2.07 C3.9375,-1.776 3.576,-1.629 3.15,-1.629 C2.73,-1.629 2.3715,-1.7775 2.0745,-2.0745 C1.7775,-2.3715 1.629,-2.73 1.629,-3.15 C1.629,-3.576 1.776,-3.9375 2.07,-4.2345 C2.364,-4.5315 2.724,-4.68 3.15,-4.68 C3.576,-4.68 3.9375,-4.5315 4.2345,-4.2345 C4.5315,-3.9375 4.68,-3.576 4.68,-3.15 M4.464,-3.15 C4.464,-3.516 4.3365,-3.8265 4.0815,-4.0815 C3.8265,-4.3365 3.516,-4.464 3.15,-4.464 C2.784,-4.464 2.475,-4.3365 2.223,-4.0815 C1.971,-3.8265 1.845,-3.516 1.845,-3.15 C1.845,-2.79 1.9725,-2.4825 2.2275,-2.2275 C2.4825,-1.9725 2.79,-1.845 3.15,-1.845 C3.516,-1.845 3.8265,-1.971 4.0815,-2.223 C4.3365,-2.475 4.464,-2.784 4.464,-3.15 "/>
</g>
</g>
</svg>
